<svg width="111" height="111" viewBox="0 0 111 111" fill="none" xmlns="http://www.w3.org/2000/svg">
<path fill-rule="evenodd" clip-rule="evenodd" d="M47.5107 8.50193V25.6834L38.9006 10.7703L29.7979 11.3166L25.0822 18.7931L33.6729 33.6727L18.7598 25.0626L11.1498 30.0871L10.8041 38.9197L25.6837 47.5105H8.46344L4.38525 55.6669L8.50218 63.489H25.6837L10.8041 72.0798L11.1498 80.9124L18.7598 85.9369L33.6729 77.3268L25.0822 92.2064L29.7979 99.6829L38.9006 100.229L47.5107 85.3161V102.498L55.3329 106.614L63.4893 102.536V85.3161L72.08 100.196L80.9126 99.85L85.9372 92.24L77.3271 77.3268L92.2067 85.9176L99.6831 81.2018L100.229 72.0991L85.3163 63.489H102.498L106.615 55.6669L102.537 47.5105H85.3163L100.229 38.9004L99.6831 29.7977L92.2067 25.0819L77.3271 33.6727L85.9372 18.7595L80.9126 11.1495L72.08 10.8038L63.4893 25.6834V8.4632L55.3329 4.38501L47.5107 8.50193ZM72.6363 36.3809L82.7549 18.855L79.4182 13.8013L73.6079 13.5739L63.4893 31.0999V41.6619L72.6363 36.3809ZM63.4893 44.7891L69.9281 41.0717L66.2106 47.5105H63.4893V44.7891ZM60.781 43.2255V35.7906L57.0636 42.2294L58.4243 44.5862L60.781 43.2255ZM59.7784 46.9316L60.781 46.3527V47.5105H60.1126L59.7784 46.9316ZM51.634 51.6338L54.0849 50.2187H56.915L59.366 51.6337L60.781 54.0847V56.9148L59.366 59.3657L56.9151 60.7808H54.0849L51.634 59.3657L50.219 56.9148V54.0847L51.634 51.6338ZM47.5107 50.8872L46.9318 51.2214L46.353 50.2187H47.5107V50.8872ZM56.0789 45.9403L55.5 46.2745L54.9211 45.9403L55.5 44.9377L56.0789 45.9403ZM44.5865 52.5755L42.2297 53.9362L35.7909 50.2187H43.2258L44.5865 52.5755ZM44.9379 55.4997L45.9406 54.9209L46.2748 55.4998L45.9406 56.0786L44.9379 55.4997ZM39.5215 55.4997L30.3744 50.2187H10.1372L7.42899 55.6352L10.1372 60.7808H30.3744L39.5215 55.4997ZM35.7909 60.7808L42.2297 57.0633L44.5865 58.424L43.2258 60.7808H35.7909ZM31.1001 63.489L13.5742 73.6076L13.8016 79.418L18.8552 82.7547L36.3811 72.636L41.6622 63.489H31.1001ZM38.3637 74.6186L28.2451 92.1445L31.3472 97.0627L37.3921 97.4256L47.5107 79.8996V69.3376L38.3637 74.6186ZM47.5107 66.2104L41.0719 69.9278L44.7894 63.489H47.5107V66.2104ZM50.219 67.774V75.2089L53.9364 68.7701L52.5757 66.4133L50.219 67.774ZM51.2216 64.0679L50.219 64.6468V63.489H50.8874L51.2216 64.0679ZM54.9211 65.0592L55.5 66.0618L56.0789 65.0592L55.5 64.725L54.9211 65.0592ZM63.4893 60.1124V60.7808H64.647L64.0681 59.7781L63.4893 60.1124ZM66.4135 58.424L67.7742 60.7808H75.2091L68.7703 57.0633L66.4135 58.424ZM71.4785 55.4997L80.6256 60.7808H100.863L103.571 55.6352L100.863 50.2187H80.6256L71.4785 55.4997ZM75.2091 50.2187L68.7703 53.9362L66.4135 52.5755L67.7742 50.2187H75.2091ZM79.8999 47.5105H69.3378L74.6188 38.3635L92.1448 28.2448L97.063 31.347L97.4258 37.3919L79.8999 47.5105ZM66.0621 55.4997L65.0594 56.0786L64.7252 55.4997L65.0594 54.9209L66.0621 55.4997ZM50.219 100.863V80.6253L55.5 71.4783L60.781 80.6253V100.863L55.3646 103.571L50.219 100.863ZM60.781 75.2089L57.0636 68.7701L58.4243 66.4133L60.781 67.774V75.2089ZM60.1126 63.489L59.7784 64.0679L60.781 64.6468V63.489H60.1126ZM64.0681 51.2214L64.647 50.2187H63.4893V50.8871L64.0681 51.2214ZM60.781 10.137V30.3742L55.5 39.5212L50.219 30.3742V10.137L55.3646 7.42875L60.781 10.137ZM50.219 35.7907L53.9364 42.2294L52.5757 44.5862L50.219 43.2255V35.7907ZM50.219 46.3527L51.2216 46.9316L50.8874 47.5105H50.219V46.3527ZM46.353 60.7808L46.9318 59.7781L47.5107 60.1124V60.7808H46.353ZM47.5107 31.0999L37.3921 13.5739L31.3472 13.9367L28.2451 18.855L38.3637 36.3809L47.5107 41.6619V31.0999ZM47.5107 44.7891L41.0719 41.0717L44.7894 47.5105H47.5107V44.7891ZM63.4893 79.8996L73.6079 97.4256L79.4182 97.1982L82.7549 92.1445L72.6363 74.6186L63.4893 69.3376V79.8996ZM63.4893 66.2104L69.928 69.9278L66.2106 63.489H63.4893V66.2104ZM18.8552 28.2448L36.3811 38.3634L41.6622 47.5105H31.1001L13.5742 37.3919L13.8016 31.5815L18.8552 28.2448ZM92.1448 82.7546L74.6188 72.636L69.3378 63.489H79.8999L97.4258 73.6076L97.063 79.6525L92.1448 82.7546Z" fill="#DDC099"/>
<path fill-rule="evenodd" clip-rule="evenodd" d="M43.6089 6.14651L55.2872 0L67.3912 6.05197V11.1216L69.8787 6.81305L83.0657 7.3292L90.5221 18.6223L87.9872 23.0128L92.2958 20.5252L103.458 27.5657L104.269 41.074L99.8784 43.6089H104.948L111 55.7128L104.854 67.3912H99.8784L104.269 69.926L103.458 83.4343L92.2958 90.4748L87.9872 87.9872L90.5221 92.3777L83.0657 103.671L69.8787 104.187L67.3912 99.8784V104.948L55.2872 111L43.6089 104.854V99.8784L41.074 104.269L27.5657 103.458L20.5252 92.2958L23.0128 87.9873L18.6223 90.5221L7.3292 83.0658L6.81305 69.8787L11.1216 67.3912H6.14651L0 55.7128L6.05197 43.6089H11.1216L6.81305 41.1213L7.32921 27.9343L18.6223 20.478L23.0128 23.0128L20.5252 18.7042L27.5657 7.54199L41.074 6.73118L43.6089 11.1216V6.14651ZM85.3164 63.4893H102.498L106.615 55.6671L102.537 47.5107H85.3164L100.229 38.9007L99.6831 29.7979L92.2067 25.0822L77.3271 33.6729L85.9372 18.7598L80.9127 11.1498L72.08 10.8041L63.4893 25.6837V8.46347L55.3329 4.38528L47.5107 8.5022V25.6837L38.9006 10.7705L29.7979 11.3169L25.0822 18.7933L33.6729 33.6729L18.7598 25.0628L11.1498 30.0874L10.8041 38.92L25.6837 47.5107H8.46347L4.38528 55.6671L8.5022 63.4893H25.6837L10.8041 72.08L11.1498 80.9127L18.7598 85.9372L33.6729 77.3271L25.0822 92.2067L29.7979 99.6831L38.9006 100.229L47.5107 85.3164V102.498L55.3329 106.615L63.4893 102.537V85.3164L72.08 100.196L80.9127 99.8502L85.9372 92.2402L77.3271 77.3271L92.2067 85.9178L99.6831 81.2021L100.229 72.0994L85.3164 63.4893ZM97.4259 73.6079L79.8999 63.4893H69.3378L74.6189 72.6363L92.1448 82.7549L97.063 79.6528L97.4259 73.6079ZM78.8544 67.3912L93.3865 75.7813L93.2881 77.4206L92.0557 78.1979L77.4752 69.7799L76.0961 67.3912H78.8544ZM66.2106 63.4893H63.4893V66.2106L69.9281 69.9281L66.2106 63.4893ZM75.2091 60.7811L68.7703 57.0636L66.4136 58.4243L67.7742 60.7811H75.2091ZM64.7252 55.5L65.0594 56.0789L66.0621 55.5L65.0594 54.9211L64.7252 55.5ZM80.6256 60.7811H100.863L103.571 55.6354L100.863 50.219H80.6256L71.4786 55.5L80.6256 60.7811ZM98.5071 56.8792H81.6711L79.2823 55.5L81.6711 54.1209H98.4513L99.1857 55.5897L98.5071 56.8792ZM79.8999 47.5107L97.4259 37.3921L97.063 31.3472L92.1448 28.2451L74.6189 38.3637L69.3378 47.5107H79.8999ZM93.3865 35.2188L78.8544 43.6089H76.0961L77.4752 41.2201L92.0557 32.8021L93.2881 33.5794L93.3865 35.2188ZM69.9281 41.072L63.4893 44.7894V47.5107H66.2106L69.9281 41.072ZM60.1126 47.5107H60.7811V46.353L59.7784 46.9319L60.1126 47.5107ZM72.6363 36.3812L82.7549 18.8552L79.4182 13.8016L73.6079 13.5742L63.4893 31.1001V41.6622L72.6363 36.3812ZM78.17 18.9927L69.7799 33.5248L67.3912 34.9039V32.1456L75.8092 17.5652L77.2652 17.6222L78.17 18.9927ZM60.7811 30.3745V10.1372L55.3646 7.42902L50.219 10.1372V30.3745L55.5 39.5215L60.7811 30.3745ZM56.8792 12.5487V29.329L55.5 31.7177L54.1209 29.329V12.4929L55.4103 11.8143L56.8792 12.5487ZM50.219 35.7909V43.2258L52.5757 44.5865L53.9364 42.2297L50.219 35.7909ZM47.5107 31.1001L37.3921 13.5742L31.3472 13.937L28.2451 18.8552L38.3637 36.3812L47.5107 41.6622V31.1001ZM35.2188 17.6135L43.6089 32.1456V34.9039L41.2201 33.5248L32.8021 18.9444L33.5794 17.7119L35.2188 17.6135ZM36.3812 38.3637L18.8552 28.2451L13.8016 31.5818L13.5742 37.3921L31.1001 47.5107H41.6622L36.3812 38.3637ZM18.9927 32.83L33.5248 41.2201L34.9039 43.6089H32.1456L17.5652 35.1909L17.6222 33.7349L18.9927 32.83ZM35.7909 50.219L42.2297 53.9364L44.5865 52.5757L43.2258 50.219H35.7909ZM46.2748 55.5L45.9406 54.9211L44.9379 55.5L45.9406 56.0789L46.2748 55.5ZM30.3745 50.219H10.1372L7.42902 55.6354L10.1372 60.7811H30.3745L39.5215 55.5L30.3745 50.219ZM12.5487 54.1209H29.329L31.7177 55.5L29.329 56.8792H12.4929L11.8143 55.5897L12.5487 54.1209ZM31.1001 63.4893L13.5742 73.6079L13.8016 79.4182L18.8552 82.7549L36.3812 72.6363L41.6622 63.4893H31.1001ZM17.5652 75.8092L32.1456 67.3912H34.9039L33.5248 69.7799L18.9927 78.17L17.6222 77.2652L17.5652 75.8092ZM41.0719 69.9281L47.5107 66.2106V63.4893H44.7894L41.0719 69.9281ZM50.8874 63.4893H50.219V64.6471L51.2216 64.0682L50.8874 63.4893ZM38.3637 74.6189L28.2451 92.1448L31.3472 97.063L37.3921 97.4259L47.5107 79.8999V69.3378L38.3637 74.6189ZM32.8021 92.0557L41.2201 77.4752L43.6089 76.0961V78.8544L35.2188 93.3865L33.5794 93.2881L32.8021 92.0557ZM50.219 80.6256V100.863L55.3646 103.571L60.7811 100.863V80.6256L55.5 71.4785L50.219 80.6256ZM54.1209 98.5071V81.6711L55.5 79.2823L56.8792 81.6711V98.4513L55.4103 99.1857L54.1209 98.5071ZM60.7811 75.2091V67.7742L58.4243 66.4136L57.0636 68.7703L60.7811 75.2091ZM60.7811 64.647V63.4893H60.1126L59.7784 64.0682L60.7811 64.647ZM63.4893 60.1126V60.7811H64.647L64.0682 59.7784L63.4893 60.1126ZM68.7703 53.9364L75.2091 50.219H67.7742L66.4136 52.5757L68.7703 53.9364ZM64.647 50.219L64.0682 51.2216L63.4893 50.8874V50.219H64.647ZM59.366 51.634L56.9151 50.219H54.085L51.634 51.634L50.219 54.085V56.9151L51.634 59.366L54.085 60.7811H56.9151L59.366 59.366L60.7811 56.9151V54.085L59.366 51.634ZM56.8792 55.8696V55.1305L56.5096 54.4904L55.8696 54.1209H55.1305L54.4904 54.4904L54.1209 55.1305V55.8696L54.4904 56.5096L55.1305 56.8792H55.8696L56.5096 56.5096L56.8792 55.8696ZM50.219 67.7742V75.2091L53.9364 68.7703L52.5757 66.4136L50.219 67.7742ZM56.0789 65.0594L55.5 64.7252L54.9211 65.0594L55.5 66.0621L56.0789 65.0594ZM42.2297 57.0636L35.7909 60.7811H43.2258L44.5865 58.4243L42.2297 57.0636ZM47.5107 60.7811V60.1126L46.9319 59.7784L46.353 60.7811H47.5107ZM50.8874 47.5107L51.2216 46.9319L50.219 46.353V47.5107H50.8874ZM47.5107 44.7894L41.0719 41.0719L44.7894 47.5107H47.5107V44.7894ZM46.353 50.219H47.5107V50.8874L46.9319 51.2216L46.353 50.219ZM60.7811 43.2258V35.7909L57.0636 42.2297L58.4243 44.5865L60.7811 43.2258ZM54.9211 45.9406L55.5 46.2748L56.0789 45.9406L55.5 44.9379L54.9211 45.9406ZM63.4893 79.8999L73.6079 97.4259L79.4182 97.1984L82.7549 92.1448L72.6363 74.6189L63.4893 69.3378V79.8999ZM75.8092 93.4348L67.3912 78.8544V76.0961L69.7799 77.4752L78.17 92.0073L77.2652 93.3778L75.8092 93.4348Z" fill="#D7603A"/>
</svg>
